<svg width="22" height="22" viewBox="0 0 22 22" fill="none" xmlns="http://www.w3.org/2000/svg">
<path fill-rule="evenodd" clip-rule="evenodd" d="M6.78956 0.83509C8.12436 0.282179 9.55523 -0.00161233 11 6.89011e-06C12.4448 -0.00161233 13.8757 0.282179 15.2105 0.83509C16.5452 1.38797 17.7576 2.19905 18.778 3.22174C19.8008 4.24221 20.612 5.4547 21.1649 6.78956C21.7178 8.12436 22.0016 9.55523 22 11C22.0016 12.4448 21.7178 13.8757 21.1649 15.2105C20.612 16.5453 19.8009 17.7577 18.7781 18.7781C17.7577 19.8009 16.5453 20.612 15.2105 21.1649C13.8757 21.7178 12.4448 22.0016 11 22C9.55523 22.0016 8.12436 21.7178 6.78956 21.1649C5.45476 20.612 4.24234 19.8009 3.2219 18.7781C2.19913 17.7577 1.388 16.5453 0.83509 15.2105C0.282179 13.8757 -0.00161233 12.4448 6.89011e-06 11C-0.00161233 9.55523 0.282179 8.12436 0.83509 6.78956C1.388 5.45476 2.19913 4.24234 3.2219 3.2219C4.24234 2.19913 5.45476 1.388 6.78956 0.83509ZM6.89011e-06 11L8.32062e-06 10.9988L1.00001 11L8.32062e-06 11.0012L6.89011e-06 11ZM11 22L10.9988 22L11 21L11.0012 22L11 22ZM22 11L22 11.0012L21 11L22 10.9988L22 11ZM11 6.89011e-06L11.0012 8.32062e-06L11 1.00001L10.9988 8.32062e-06L11 6.89011e-06ZM10.9988 2.00001C9.81706 1.99855 8.6467 2.2306 7.55495 2.68284C6.46319 3.13508 5.47155 3.79858 4.637 4.63523L4.63523 4.637C3.79858 5.47155 3.13508 6.46319 2.68284 7.55495C2.2306 8.6467 1.99855 9.81706 2.00001 10.9988V11.0012C1.99855 12.183 2.2306 13.3533 2.68284 14.4451C3.13508 15.5368 3.79858 16.5285 4.63523 17.363L4.637 17.3648C5.47155 18.2014 6.46319 18.8649 7.55495 19.3172C8.6467 19.7694 9.81706 20.0015 10.9988 20H11.0012C12.183 20.0015 13.3533 19.7694 14.4451 19.3172C15.5368 18.8649 16.5285 18.2014 17.363 17.3648L17.3648 17.363C18.2014 16.5285 18.8649 15.5368 19.3172 14.4451C19.7694 13.3533 20.0015 12.183 20 11.0012V10.9988C20.0015 9.81706 19.7694 8.6467 19.3172 7.55495C18.8649 6.46319 18.2014 5.47155 17.3648 4.637L17.363 4.63523C16.5285 3.79858 15.5368 3.13508 14.4451 2.68284C13.3533 2.2306 12.183 1.99855 11.0012 2.00001H10.9988Z" fill="#8D9DBD"/>
<path fill-rule="evenodd" clip-rule="evenodd" d="M11 4.50001C11.3315 4.50001 11.6495 4.6317 11.8839 4.86612C12.1183 5.10054 12.25 5.41849 12.25 5.75001C12.25 6.08153 12.1183 6.39947 11.8839 6.63389C11.6495 6.86831 11.3315 7.00001 11 7.00001C10.6685 7.00001 10.3505 6.86831 10.1161 6.63389C9.8817 6.39947 9.75001 6.08153 9.75001 5.75001C9.75001 5.41849 9.8817 5.10054 10.1161 4.86612C10.3505 4.6317 10.6685 4.50001 11 4.50001Z" fill="#8D9DBD"/>
<path fill-rule="evenodd" clip-rule="evenodd" d="M9.25001 9.00001C9.25001 8.44772 9.69772 8.00001 10.25 8.00001H11.25C11.8023 8.00001 12.25 8.44772 12.25 9.00001V15H13C13.5523 15 14 15.4477 14 16C14 16.5523 13.5523 17 13 17H9.50001C8.94772 17 8.50001 16.5523 8.50001 16C8.50001 15.4477 8.94772 15 9.50001 15H10.25V10C9.69772 10 9.25001 9.55229 9.25001 9.00001Z" fill="#8D9DBD"/>
</svg>
