<svg width="478" height="451" viewBox="0 0 478 451" fill="none" xmlns="http://www.w3.org/2000/svg">
<path fill-rule="evenodd" clip-rule="evenodd" d="M203.061 270.533L209.093 270.535H203.214L203.061 270.533ZM202.759 270.534L203.061 270.533L202.908 270.535L202.759 270.534Z" fill="#A4BB87"/>
<path fill-rule="evenodd" clip-rule="evenodd" d="M235.327 225.446V193.239V180.357V173.915C235.327 152.571 252.579 135.267 273.862 135.267H280.284C301.567 135.267 318.82 152.571 318.82 173.915V180.357L317.793 193.239H317.749L315.025 226.002C314.748 229.328 311.975 231.887 308.647 231.887C304.902 231.887 301.957 228.677 302.269 224.935L304.566 197.297C304.453 194.649 303.831 193.676 302.225 193.239H254.383C250.019 193.239 248.62 193.239 248.172 197.28V225.446C248.172 229.003 245.296 231.887 241.749 231.887C238.202 231.887 235.327 229.003 235.327 225.446ZM280.284 148.15H273.862C259.674 148.15 248.172 159.686 248.172 173.915V175.869C248.318 180.357 249.61 180.357 260.998 180.357H293.143C304.687 180.357 305.856 180.357 305.975 175.681V173.915C305.975 159.686 294.473 148.15 280.284 148.15Z" fill="#A4BB87"/>
<path d="M159.754 141.235C159.514 137.872 156.725 135.267 153.364 135.267C149.646 135.267 146.709 138.431 146.974 142.15L158.574 302.681L158.904 307.315C159.591 312.697 163.69 315.625 166.244 315.621L169.036 315.621L172.356 315.625H313.47C317.017 315.625 319.893 312.741 319.893 309.183C319.893 305.626 317.017 302.742 313.47 302.742L183.061 302.742C174.976 302.739 171.834 301.542 170.751 295.643L159.754 141.235Z" fill="#A4BB87"/>
<path d="M203.505 141.395C203.342 137.965 200.521 135.267 197.097 135.267C193.434 135.267 190.514 138.338 190.689 142.007L196.5 264.407C196.661 267.788 199.402 270.456 202.759 270.534L203.061 270.533L209.093 270.535H312.397C315.944 270.535 318.82 267.651 318.82 264.094C318.82 260.537 315.944 257.653 312.397 257.653H221.307C212.206 257.653 209.15 255.829 208.57 248.078L203.505 141.395Z" fill="#A4BB87"/>
<path fill-rule="evenodd" clip-rule="evenodd" d="M374.347 125.438L354.774 331.561C353.204 348.09 339.362 360.714 322.806 360.714H149.993C133.437 360.714 119.595 348.09 118.025 331.561L98.4516 125.438C96.6561 106.53 111.482 90.1781 130.42 90.1781H231.05L231.05 58.1577C225.537 55.0853 218.161 54.9139 207.386 56.3083C204.314 56.7058 200.985 57.2308 197.444 57.789C187.486 59.3591 175.858 61.1923 163.613 61.1923C155.196 61.1923 141.638 60.15 127.661 58.2129C113.729 56.2821 98.8697 53.3941 88.0175 49.5527C82.7094 47.6738 77.6489 45.3288 74.2109 42.2735C72.4495 40.7083 70.7112 38.604 69.8882 35.8744C69.0028 32.9376 69.3877 29.9686 70.7578 27.3241C73.1618 22.6839 78.5058 19.1892 84.9323 16.2263C91.7321 13.0913 101.229 9.90916 113.839 6.64533C154.689 -3.92742 186.771 -0.82674 208.993 9.35879C221.853 15.2533 231.576 23.6588 237.452 33.1618C243.323 23.6312 253.062 15.2 265.952 9.29156C288.174 -0.893969 320.256 -3.99464 361.106 6.57811C373.716 9.84193 383.213 13.024 390.013 16.1591C396.439 19.122 401.783 22.6167 404.187 27.2568C405.557 29.9014 405.942 32.8704 405.057 35.8071C404.234 38.5368 402.495 40.641 400.734 42.2063C397.296 45.2615 392.235 47.6066 386.927 49.4855C376.075 53.3269 361.216 56.2149 347.284 58.1457C333.307 60.0827 319.749 61.125 311.332 61.125C299.087 61.125 287.459 59.2918 277.501 57.7218C273.96 57.1636 270.631 56.6386 267.559 56.2411C256.784 54.8467 249.408 55.0181 243.895 58.0905V90.1781H342.379C361.318 90.1781 376.143 106.53 374.347 125.438ZM340.118 103.061H132.681C119.42 103.061 109.041 114.514 110.304 127.753L129.357 327.434C130.461 339 140.148 347.831 151.734 347.831H321.065C332.651 347.831 342.338 339 343.442 327.434L362.495 127.753C363.758 114.514 353.379 103.061 340.118 103.061ZM203.653 21.0757C184.77 12.4204 155.838 9.07982 117.049 19.1193C104.772 22.2968 96.1044 25.2541 90.2974 27.9314C85.7061 30.0482 83.5842 31.6909 82.692 32.5978L82.7296 32.6314C84.2464 33.9794 87.3647 35.6602 92.2926 37.4045C101.912 40.8096 115.754 43.5578 129.419 45.4515C143.039 47.339 155.974 48.3096 163.613 48.3096C174.773 48.3096 184.859 46.7195 194.546 45.1923C198.325 44.5964 202.044 44.0102 205.742 43.5316C213.369 42.5446 221.188 41.9839 228.471 43.5964C224.698 35.3505 216.671 27.0428 203.653 21.0757ZM271.292 21.0085C290.174 12.3532 319.106 9.01259 357.896 19.0521C370.173 22.2296 378.84 25.1869 384.647 27.8641C389.239 29.9809 391.361 31.6237 392.253 32.5305L392.215 32.5642C390.698 33.9122 387.58 35.593 382.652 37.3373C373.033 40.7424 359.191 43.4905 345.526 45.3843C331.906 47.2718 318.971 48.2424 311.332 48.2424C300.172 48.2424 290.086 46.6523 280.399 45.125C276.62 44.5292 272.901 43.943 269.203 43.4644C261.575 42.4773 253.757 41.9167 246.474 43.5292C250.247 35.2833 258.273 26.9755 271.292 21.0085Z" fill="#A4BB87"/>
<path d="M444.879 421.12H450.68L461.074 431.55L471.468 421.12H477.269V449.721H471.468V429.153L461.074 439.163L450.68 429.153V449.721H444.879V421.12Z" fill="#A4BB87"/>
<path d="M401.953 435.338C401.953 433.179 402.349 431.202 403.142 429.409C403.935 427.616 405.046 426.079 406.473 424.798C407.912 423.505 409.633 422.504 411.633 421.797C413.646 421.089 415.873 420.735 418.312 420.735C420.74 420.735 422.96 421.089 424.973 421.797C426.986 422.504 428.706 423.505 430.134 424.798C431.573 426.079 432.69 427.616 433.482 429.409C434.275 431.202 434.672 433.179 434.672 435.338C434.672 437.51 434.275 439.504 433.482 441.322C432.69 443.127 431.573 444.683 430.134 445.988C428.706 447.293 426.986 448.312 424.973 449.044C422.96 449.764 420.74 450.124 418.312 450.124C415.873 450.124 413.646 449.764 411.633 449.044C409.633 448.312 407.912 447.293 406.473 445.988C405.046 444.683 403.935 443.127 403.142 441.322C402.349 439.504 401.953 437.51 401.953 435.338ZM407.754 435.338C407.754 436.814 408.016 438.144 408.541 439.327C409.077 440.511 409.815 441.523 410.755 442.365C411.706 443.194 412.823 443.835 414.104 444.286C415.397 444.738 416.8 444.963 418.312 444.963C419.825 444.963 421.222 444.738 422.503 444.286C423.796 443.835 424.912 443.194 425.852 442.365C426.791 441.523 427.529 440.511 428.066 439.327C428.603 438.144 428.871 436.814 428.871 435.338C428.871 433.862 428.603 432.538 428.066 431.367C427.529 430.196 426.791 429.208 425.852 428.403C424.912 427.585 423.796 426.963 422.503 426.536C421.222 426.109 419.825 425.896 418.312 425.896C416.8 425.896 415.397 426.109 414.104 426.536C412.823 426.963 411.706 427.585 410.755 428.403C409.815 429.208 409.077 430.196 408.541 431.367C408.016 432.538 407.754 433.862 407.754 435.338Z" fill="#A4BB87"/>
<path d="M363.748 435.247C363.748 433.209 364.132 431.312 364.901 429.555C365.669 427.787 366.779 426.256 368.231 424.962C369.695 423.657 371.476 422.632 373.575 421.888C375.685 421.144 378.07 420.772 380.73 420.772C383.06 420.772 385.195 421.01 387.134 421.486C389.086 421.949 390.898 422.663 392.569 423.627L389.897 428.018C389.397 427.689 388.818 427.396 388.159 427.14C387.512 426.884 386.817 426.67 386.073 426.499C385.341 426.316 384.579 426.176 383.786 426.079C383.005 425.981 382.23 425.932 381.462 425.932C379.607 425.932 377.954 426.164 376.502 426.628C375.051 427.079 373.825 427.719 372.824 428.549C371.836 429.366 371.08 430.348 370.555 431.495C370.043 432.63 369.787 433.88 369.787 435.247C369.787 436.662 370.055 437.961 370.592 439.144C371.129 440.328 371.903 441.352 372.916 442.219C373.941 443.072 375.185 443.743 376.649 444.231C378.125 444.707 379.79 444.945 381.645 444.945C382.486 444.945 383.322 444.884 384.152 444.762C384.981 444.64 385.78 444.475 386.549 444.268C387.329 444.048 388.08 443.792 388.8 443.499C389.519 443.194 390.19 442.865 390.812 442.511L393.484 446.903C391.923 447.903 390.117 448.69 388.068 449.264C386.018 449.825 383.84 450.105 381.535 450.105C378.595 450.105 376.014 449.727 373.794 448.971C371.574 448.202 369.72 447.153 368.231 445.823C366.743 444.482 365.621 442.908 364.864 441.102C364.12 439.285 363.748 437.333 363.748 435.247Z" fill="#A4BB87"/>
<path d="M345.471 446.555C345.471 446.067 345.568 445.61 345.763 445.183C345.971 444.744 346.264 444.366 346.642 444.048C347.02 443.719 347.477 443.463 348.014 443.28C348.551 443.097 349.155 443.005 349.826 443.005C350.497 443.005 351.101 443.097 351.637 443.28C352.174 443.463 352.626 443.719 352.992 444.048C353.37 444.366 353.657 444.744 353.852 445.183C354.059 445.61 354.163 446.067 354.163 446.555C354.163 447.043 354.059 447.507 353.852 447.946C353.657 448.373 353.37 448.745 352.992 449.062C352.626 449.38 352.174 449.63 351.637 449.813C351.101 450.008 350.497 450.105 349.826 450.105C349.155 450.105 348.551 450.008 348.014 449.813C347.477 449.63 347.02 449.38 346.642 449.062C346.264 448.745 345.971 448.373 345.763 447.946C345.568 447.507 345.471 447.043 345.471 446.555Z" fill="#A4BB87"/>
<path d="M319.727 426.207H309.169V421.12H336.087V426.207H325.528V449.721H319.727V426.207Z" fill="#A4BB87"/>
<path d="M273.068 421.12H287.616C289.812 421.12 291.715 421.351 293.325 421.815C294.936 422.266 296.271 422.925 297.333 423.791C298.394 424.657 299.181 425.713 299.693 426.957C300.218 428.201 300.48 429.61 300.48 431.184C300.48 432.245 300.352 433.258 300.096 434.222C299.84 435.173 299.443 436.052 298.906 436.857C298.382 437.662 297.717 438.382 296.912 439.016C296.107 439.638 295.161 440.157 294.076 440.572L300.297 449.721H293.197L287.817 441.596H287.653L278.869 441.578V449.721H273.068V421.12ZM287.762 436.564C288.86 436.564 289.818 436.436 290.635 436.18C291.465 435.924 292.154 435.564 292.703 435.1C293.264 434.637 293.679 434.075 293.947 433.417C294.228 432.746 294.368 432.001 294.368 431.184C294.368 429.586 293.819 428.354 292.721 427.488C291.623 426.609 289.97 426.17 287.762 426.17H278.869V436.564H287.762Z" fill="#A4BB87"/>
<path d="M244.891 421.12H251.039L264.874 449.721H258.78L256.493 444.908H239.785L237.571 449.721H231.459L244.891 421.12ZM254.205 440.132L248.02 427.14L242 440.132H254.205Z" fill="#A4BB87"/>
<path d="M196.017 421.12H201.818V436.875C201.818 438.168 201.995 439.321 202.349 440.334C202.703 441.334 203.227 442.182 203.923 442.877C204.63 443.573 205.502 444.103 206.539 444.469C207.576 444.823 208.784 445 210.163 445C211.529 445 212.731 444.823 213.768 444.469C214.817 444.103 215.689 443.573 216.384 442.877C217.092 442.182 217.623 441.334 217.976 440.334C218.33 439.321 218.507 438.168 218.507 436.875V421.12H224.308V437.571C224.308 439.449 223.991 441.157 223.356 442.694C222.722 444.231 221.801 445.549 220.593 446.647C219.385 447.745 217.903 448.593 216.147 449.19C214.402 449.788 212.407 450.087 210.163 450.087C207.918 450.087 205.917 449.788 204.161 449.19C202.416 448.593 200.94 447.745 199.732 446.647C198.524 445.549 197.603 444.231 196.969 442.694C196.335 441.157 196.017 439.449 196.017 437.571V421.12Z" fill="#A4BB87"/>
<path d="M165.278 421.12H171.079V444.634H187.713V449.721H165.278V421.12Z" fill="#A4BB87"/>
<path d="M137.101 421.12H143.25L157.084 449.721H150.99L148.703 444.908H131.996L129.782 449.721H123.67L137.101 421.12ZM146.416 440.132L140.23 427.14L134.21 440.132H146.416Z" fill="#A4BB87"/>
<path d="M89.3074 421.12H99.7929C102.855 421.12 105.514 421.449 107.771 422.108C110.028 422.766 111.895 423.712 113.371 424.944C114.859 426.164 115.963 427.652 116.683 429.409C117.415 431.154 117.781 433.118 117.781 435.301C117.781 437.375 117.421 439.297 116.701 441.066C115.982 442.822 114.884 444.347 113.407 445.64C111.931 446.921 110.065 447.928 107.808 448.66C105.551 449.38 102.892 449.739 99.8295 449.739L89.3074 449.721V421.12ZM101.22 444.707C102.953 444.707 104.471 444.488 105.777 444.048C107.082 443.597 108.168 442.963 109.034 442.145C109.912 441.328 110.571 440.34 111.01 439.181C111.449 438.022 111.669 436.729 111.669 435.301C111.669 433.898 111.449 432.636 111.01 431.513C110.571 430.379 109.912 429.421 109.034 428.64C108.168 427.848 107.082 427.238 105.777 426.811C104.471 426.384 102.953 426.17 101.22 426.17H95.1083V444.707H101.22Z" fill="#A4BB87"/>
<path d="M48.0464 421.12H53.8472L71.6707 430.452V421.12H77.4715V449.721H71.6707V436.601L53.8472 427.323V449.721H48.0464V421.12Z" fill="#A4BB87"/>
<path d="M31.0867 421.12H36.9241V449.721H31.0867V421.12Z" fill="#A4BB87"/>
<path d="M0 421.12H5.80085V444.634H22.4348V449.721H0V421.12Z" fill="#A4BB87"/>
</svg>
