<svg width="288" height="308" viewBox="0 0 288 308" fill="none" xmlns="http://www.w3.org/2000/svg">
<path fill-rule="evenodd" clip-rule="evenodd" d="M114.386 230.998L119.536 231H114.516L114.386 230.998ZM114.128 230.998L114.386 230.998L114.256 231L114.128 230.998Z" fill="#677DA7"/>
<path fill-rule="evenodd" clip-rule="evenodd" d="M141.936 192.5V165V154V148.5C141.936 130.274 156.668 115.5 174.84 115.5H180.324C198.496 115.5 213.228 130.274 213.228 148.5V154L212.352 165H212.313L209.988 192.974C209.752 195.815 207.384 198 204.542 198C201.344 198 198.83 195.259 199.096 192.063L201.057 168.464C200.961 166.204 200.43 165.372 199.058 165H158.208C154.482 165 153.287 165 152.904 168.45V192.5C152.904 195.537 150.449 198 147.42 198C144.392 198 141.936 195.537 141.936 192.5ZM180.324 126.5H174.84C162.725 126.5 152.904 136.35 152.904 148.5V150.168C153.029 154 154.133 154 163.856 154H191.304C201.16 154 202.159 154 202.26 150.008V148.5C202.26 136.35 192.439 126.5 180.324 126.5Z" fill="#677DA7"/>
<path d="M77.4075 120.595C77.2031 117.724 74.8212 115.5 71.9514 115.5C68.7769 115.5 66.2691 118.201 66.4952 121.377L76.4 258.448L76.6818 262.405C77.2685 267 80.7686 269.5 82.9495 269.497L85.3333 269.497L88.1679 269.5H208.66C211.689 269.5 214.144 267.038 214.144 264C214.144 260.962 211.689 258.5 208.66 258.5L97.3083 258.5C90.4056 258.497 87.7221 257.475 86.7975 252.439L77.4075 120.595Z" fill="#677DA7"/>
<path d="M114.765 120.732C114.626 117.803 112.217 115.5 109.293 115.5C106.166 115.5 103.673 118.122 103.822 121.255L108.784 225.767C108.921 228.654 111.262 230.933 114.128 230.998L114.386 230.998L119.536 231H207.744C210.773 231 213.228 228.537 213.228 225.5C213.228 222.462 210.773 220 207.744 220H129.965C122.195 220 119.585 218.443 119.09 211.825L114.765 120.732Z" fill="#677DA7"/>
<path fill-rule="evenodd" clip-rule="evenodd" d="M260.641 107.107L243.928 283.107C242.588 297.221 230.768 308 216.632 308H69.0734C54.9368 308 43.1173 297.221 41.777 283.107L25.0639 107.107C23.5308 90.9621 36.1897 76.9997 52.3603 76.9997H138.285L138.285 49.6587C133.577 47.0353 127.28 46.8889 118.079 48.0796C115.456 48.419 112.613 48.8672 109.59 49.3439C101.087 50.6845 91.1585 52.2498 80.7028 52.2498C73.5154 52.2498 61.9391 51.3598 50.0045 49.7058C38.1084 48.0572 25.4209 45.5912 16.1546 42.3112C11.6222 40.7069 7.3013 38.7045 4.36568 36.0957C2.86173 34.7592 1.37744 32.9625 0.674735 30.6318C-0.0812866 28.1242 0.247342 25.589 1.41722 23.331C3.46993 19.369 8.0329 16.3849 13.5203 13.855C19.3263 11.1781 27.435 8.46106 38.2026 5.6742C73.0829 -3.35347 100.477 -0.705923 119.451 7.99112C130.431 13.0242 138.734 20.2013 143.751 28.3156C148.764 20.1778 157.08 12.9787 168.086 7.93371C187.06 -0.763327 214.454 -3.41088 249.334 5.6168C260.102 8.40366 268.211 11.1207 274.017 13.7976C279.504 16.3275 284.067 19.3116 286.12 23.2736C287.29 25.5316 287.618 28.0668 286.862 30.5744C286.16 32.9051 284.675 34.7018 283.171 36.0383C280.236 38.6471 275.915 40.6495 271.383 42.2538C262.116 45.5338 249.429 47.9998 237.533 49.6484C225.598 51.3024 214.022 52.1924 206.834 52.1924C196.379 52.1924 186.45 50.6271 177.947 49.2865C174.924 48.8098 172.081 48.3616 169.458 48.0222C160.258 46.8315 153.96 46.9779 149.253 49.6013V76.9997H233.345C249.515 76.9997 262.174 90.9622 260.641 107.107ZM231.414 87.9997H54.2912C42.9683 87.9997 34.106 97.7791 35.1846 109.083L51.4528 279.584C52.3951 289.46 60.6672 297 70.5594 297H215.145C225.038 297 233.31 289.46 234.252 279.584L250.52 109.083C251.599 97.7791 242.737 87.9997 231.414 87.9997ZM114.892 17.9958C98.7682 10.6053 74.0643 7.75292 40.9433 16.3253C30.4605 19.0384 23.0597 21.5635 18.1014 23.8496C14.181 25.657 12.3692 27.0597 11.6074 27.834L11.6395 27.8628C12.9347 29.0137 15.5973 30.4489 19.805 31.9383C28.0188 34.8458 39.8379 37.1923 51.5058 38.8093C63.1351 40.421 74.1802 41.2498 80.7028 41.2498C90.2319 41.2498 98.8437 39.8921 107.115 38.588C110.342 38.0792 113.517 37.5786 116.675 37.17C123.188 36.3272 129.863 35.8485 136.083 37.2253C132.861 30.1845 126.007 23.0908 114.892 17.9958ZM172.645 17.9384C188.769 10.5479 213.473 7.69551 246.594 16.2679C257.077 18.981 264.477 21.5061 269.436 23.7921C273.356 25.5996 275.168 27.0023 275.93 27.7766L275.898 27.8053C274.602 28.9563 271.94 30.3915 267.732 31.8809C259.518 34.7884 247.699 37.1349 236.031 38.7519C224.402 40.3636 213.357 41.1924 206.834 41.1924C197.305 41.1924 188.693 39.8347 180.422 38.5306C177.195 38.0218 174.02 37.5212 170.862 37.1126C164.349 36.2698 157.674 35.7911 151.455 37.1679C154.676 30.1271 161.53 23.0334 172.645 17.9384Z" fill="#677DA7"/>
</svg>
